<?xml version="1.0" encoding="UTF-8" standalone="no"?>
<svg
   xmlns:dc="http://purl.org/dc/elements/1.1/"
   xmlns:cc="http://creativecommons.org/ns#"
   xmlns:rdf="http://www.w3.org/1999/02/22-rdf-syntax-ns#"
   xmlns:svg="http://www.w3.org/2000/svg"
   xmlns="http://www.w3.org/2000/svg"
   viewBox="0 0 1066.6667 1066.6667"
   height="266.6667"
   width="266.6667"
   xml:space="preserve"
   id="svg2"
   version="1.1"><metadata
     id="metadata8"><rdf:RDF><cc:Work
         rdf:about=""><dc:format>image/svg+xml</dc:format><dc:type
           rdf:resource="http://purl.org/dc/dcmitype/StillImage" /></cc:Work></rdf:RDF></metadata><defs
     id="defs6" /><g
     transform="matrix(1.3333333,0,0,-1.3333333,0,1066.6667)"
     id="g10"><g
       transform="scale(0.1)"
       id="g12"><path
         id="path14"
         style="fill:#211c1d;fill-opacity:1;fill-rule:nonzero;stroke:none"
         d="m 4915.03,5200.04 c -230.32,0 -445.66,-65.28 -628.59,-178.22 v 333.33 c 0,315.61 -255.85,571.45 -571.45,571.45 v 0 -789.77 c 134.02,-74.57 253.6,-172.09 353.28,-287.3 90.43,-104.53 164.45,-223.61 218.17,-353.15 28.34,-68.36 51.01,-139.62 67.42,-213.24 103.59,204.89 315.9,345.46 561.17,345.46 347.17,0 628.6,-281.44 628.6,-628.6 v -628.59 c 0,-315.61 255.85,-571.45 571.45,-571.45 V 4000 c 0,661.71 -538.34,1200.04 -1200.05,1200.04" /><path
         id="path16"
         style="fill:#211c1d;fill-opacity:1;fill-rule:nonzero;stroke:none"
         d="m 3714.99,5020.92 c -183.24,113.5 -399.1,179.12 -630.02,179.12 -661.71,0 -1200.05,-538.33 -1200.05,-1200.04 0,-33.68 1.47,-67.02 4.2,-100 50.99,-615.09 567.82,-1100.04 1195.85,-1100.04 183.06,0 356.64,41.26 512.03,114.88 10.81,42.05 16.56,86.12 16.56,131.5 v 613.68 c -111.87,-173.57 -306.74,-288.61 -528.59,-288.61 -313.12,0 -572.68,228.97 -620.59,528.59 -5.21,32.58 -8.01,65.96 -8.01,100 0,347.16 281.43,628.6 628.6,628.6 347.16,0 628.59,-281.44 628.59,-628.6 v -953.66 c 0,-23.92 -1.46,-47.48 -4.06,-70.69 -35.14,-313.87 -301.28,-557.91 -624.53,-557.91 -173.59,0 -330.73,70.36 -444.49,184.11 L 2236.8,2198.17 c 217.3,-217.29 517.31,-351.88 848.17,-351.88 661.7,0 1200.04,538.34 1200.04,1200.05 V 4000 c 0,295.41 -107.35,566.17 -285.01,775.48 -81.42,95.92 -177.59,178.91 -285.01,245.44" /></g></g></svg>